<?xml version="1.0" standalone="no"?>
<!DOCTYPE svg PUBLIC "-//W3C//DTD SVG 20010904//EN"
 "http://www.w3.org/TR/2001/REC-SVG-20010904/DTD/svg10.dtd">
<svg version="1.0" xmlns="http://www.w3.org/2000/svg"
 width="1500.000000pt" height="1500.000000pt" viewBox="0 0 1500.000000 1500.000000"
 preserveAspectRatio="xMidYMid meet">
<metadata>
Created by potrace 1.14, written by Peter Selinger 2001-2017
</metadata>
<g transform="translate(0.000000,1500.000000) scale(0.100000,-0.100000)"
fill="#000000" stroke="none">
<path d="M7441 12397 c-21 -23 -49 -71 -91 -154 -11 -23 -25 -45 -30 -48 -5
-3 -18 -25 -29 -48 -11 -23 -26 -51 -33 -62 -7 -11 -20 -31 -29 -45 -9 -14
-35 -61 -59 -105 -23 -44 -50 -91 -59 -105 -9 -14 -23 -38 -31 -55 -8 -16 -19
-34 -23 -40 -5 -5 -27 -43 -50 -84 -23 -40 -53 -93 -67 -116 -14 -24 -49 -85
-78 -137 -29 -51 -62 -109 -75 -130 -51 -84 -93 -155 -112 -193 -11 -22 -22
-42 -25 -45 -3 -3 -16 -26 -29 -52 -13 -27 -28 -48 -33 -48 -13 0 -9 -28 6
-37 11 -7 78 -116 184 -303 25 -45 89 -156 112 -195 26 -45 89 -154 117 -203
13 -23 53 -93 89 -154 35 -61 64 -112 64 -114 0 -3 11 -23 26 -45 24 -38 33
-54 85 -146 56 -99 251 -440 260 -453 5 -8 17 -31 26 -50 10 -19 23 -42 31
-51 7 -9 21 -32 31 -50 21 -39 125 -220 152 -264 10 -16 27 -46 37 -65 24 -44
88 -155 113 -195 11 -16 28 -49 39 -72 11 -23 25 -45 30 -48 6 -4 17 -21 25
-38 15 -32 31 -61 72 -127 11 -19 30 -51 41 -71 40 -73 47 -84 53 -89 3 -3 14
-23 25 -45 10 -22 32 -60 49 -85 16 -25 39 -63 51 -85 24 -46 133 -235 144
-250 4 -5 25 -41 45 -80 21 -38 41 -72 44 -75 4 -3 12 -16 19 -30 15 -29 34
-62 82 -143 72 -120 90 -153 110 -194 11 -23 25 -45 30 -48 6 -4 17 -21 25
-38 8 -18 23 -45 33 -62 63 -107 92 -157 92 -161 0 -2 -621 -4 -1379 -4
l-1380 0 -34 -57 c-19 -32 -44 -74 -55 -93 -11 -19 -43 -75 -72 -125 -29 -49
-78 -133 -108 -185 -60 -104 -82 -143 -111 -192 -10 -18 -35 -62 -56 -98 -21
-36 -46 -78 -56 -95 -10 -16 -42 -73 -72 -125 -30 -52 -78 -135 -107 -185
-116 -197 -230 -399 -230 -407 0 -4 1435 -8 3189 -8 2510 0 3190 3 3193 12 5
13 1 21 -52 111 -19 33 -47 80 -62 105 -51 91 -78 137 -88 152 -22 36 -105
178 -125 215 -12 22 -31 57 -43 78 -12 20 -31 52 -41 71 -11 19 -31 53 -45 75
-15 22 -26 43 -26 47 0 3 -13 26 -29 49 -16 24 -37 61 -47 82 -10 21 -32 58
-49 83 -33 50 -35 54 -90 155 -21 39 -53 93 -72 121 -18 28 -33 54 -33 58 0 4
-13 26 -28 49 -16 23 -34 57 -41 75 -8 17 -16 32 -20 32 -4 0 -12 12 -19 28
-6 15 -35 65 -63 112 -59 97 -73 122 -118 204 -18 32 -47 82 -63 110 -48 80
-70 118 -96 166 -13 25 -29 52 -36 60 -7 8 -18 26 -24 40 -7 14 -38 69 -70
122 -31 53 -86 148 -121 210 -35 62 -67 115 -71 118 -3 3 -16 25 -29 50 -32
63 -55 104 -77 137 -22 33 -46 75 -71 123 -10 19 -27 48 -37 63 -19 28 -42 68
-68 117 -7 14 -40 70 -73 125 -34 55 -67 115 -74 133 -7 17 -17 32 -21 32 -4
0 -15 19 -26 43 -10 23 -32 62 -49 87 -33 48 -105 173 -117 203 -4 10 -21 38
-38 62 -16 24 -30 46 -30 48 0 3 -20 40 -45 81 -25 42 -45 81 -45 85 0 5 -3
11 -7 13 -9 3 -31 40 -65 108 -12 25 -26 50 -30 55 -13 16 -58 86 -58 89 0 2
-32 59 -72 127 -39 68 -80 140 -91 159 -11 19 -43 75 -71 123 -28 48 -60 105
-72 125 -12 20 -35 60 -52 87 -18 28 -39 66 -49 85 -9 19 -23 42 -29 50 -7 8
-23 35 -36 60 -14 25 -34 62 -46 83 -12 20 -32 54 -44 75 -12 20 -31 55 -43
77 -12 22 -36 63 -54 90 -17 28 -40 68 -52 90 -11 22 -35 65 -54 95 -18 30
-55 93 -82 140 -27 47 -56 96 -64 110 -8 14 -16 27 -19 30 -3 3 -14 23 -25 45
-11 22 -24 45 -28 50 -4 6 -28 46 -53 90 -26 44 -55 96 -67 115 -11 19 -33 60
-49 90 -16 30 -35 62 -43 70 -7 8 -30 47 -50 85 -21 39 -49 87 -62 108 -27 43
-55 92 -88 152 -12 22 -36 63 -54 90 -17 28 -40 69 -51 91 -11 23 -26 46 -33
53 -8 6 -20 29 -27 51 -13 38 -15 40 -55 40 -31 0 -47 -6 -64 -23z"/>
<path d="M6457 10678 c-69 -121 -84 -147 -141 -246 -20 -35 -45 -77 -56 -92
-11 -15 -20 -30 -20 -33 0 -2 -29 -54 -64 -115 -36 -61 -76 -131 -89 -154 -13
-24 -69 -119 -124 -213 -55 -93 -112 -192 -128 -220 -41 -72 -115 -200 -202
-350 -41 -71 -100 -173 -130 -225 -31 -52 -63 -108 -73 -125 -10 -16 -34 -59
-55 -95 -20 -36 -40 -69 -45 -75 -4 -5 -19 -30 -32 -55 -22 -40 -59 -104 -118
-205 -9 -16 -51 -88 -92 -160 -133 -230 -188 -325 -331 -570 -77 -132 -150
-258 -162 -280 -12 -22 -101 -175 -197 -341 -97 -165 -187 -321 -200 -345 -14
-24 -62 -107 -108 -184 -46 -77 -90 -153 -100 -170 -9 -16 -28 -50 -42 -75
-46 -81 -100 -174 -119 -205 -10 -16 -22 -36 -26 -44 -3 -8 -36 -64 -71 -125
-36 -61 -83 -142 -105 -181 -22 -38 -66 -114 -98 -168 -33 -54 -59 -100 -59
-103 0 -2 -11 -21 -23 -42 -13 -20 -42 -68 -64 -107 -44 -76 -83 -143 -279
-480 -70 -121 -149 -258 -176 -305 -27 -47 -53 -92 -58 -100 -9 -13 -64 -107
-123 -210 -11 -19 -30 -53 -42 -75 -12 -22 -93 -161 -179 -308 -100 -171 -156
-278 -156 -296 0 -17 10 -37 26 -52 l26 -24 5064 -3 c5521 -2 5121 -6 5144 53
14 36 17 30 -145 310 -28 50 -82 141 -118 203 -37 62 -78 132 -91 155 -13 23
-40 71 -61 107 -21 36 -48 83 -60 105 -13 22 -46 81 -75 130 -29 50 -77 133
-108 185 -30 52 -86 149 -125 215 -39 66 -77 134 -85 150 -9 17 -20 33 -26 37
-6 4 -1508 8 -3338 8 -1890 0 -3328 4 -3328 9 0 7 28 58 108 191 11 19 42 73
68 120 26 47 63 109 81 137 18 29 44 72 56 95 13 24 34 61 47 83 13 22 33 58
45 80 43 79 90 160 122 210 7 11 24 40 38 65 14 25 37 63 50 85 13 22 33 58
45 80 11 22 36 65 55 95 18 30 43 73 55 95 20 40 31 57 61 105 9 14 27 45 41
70 55 98 72 127 103 175 32 50 85 139 133 225 14 25 33 57 43 72 11 14 19 29
19 32 0 3 37 67 81 143 45 76 93 158 107 183 14 25 42 74 64 109 21 34 38 64
38 66 0 1 46 80 101 176 56 96 134 230 174 299 40 69 155 267 255 440 101 173
221 380 267 460 47 80 85 152 85 160 1 8 -79 155 -177 325 -263 458 -365 636
-387 675 -11 19 -62 107 -113 195 -99 171 -124 214 -163 285 -45 83 -43 83
-115 -42z"/>
</g>
</svg>
